# xmcd
#
# Track frame offsets:
#	150
#	14956
#	40723
#	59803
#	86597
#	107225
#	121980
#	137832
#	153012
#	169591
#
# Disc length: 2507 seconds
#
# Revision: 1
# Processed by: cddbd v1.5.2PL0 Copyright (c) Steve Scherf et al.
# Submitted via: audiograbber 1.83.01
#
DISCID=8509c90a
DTITLE=Dave Goodman - No Rest For The Wicked
DYEAR=2013
DGENRE=Blues
TTITLE0=Nothin' But Bad
TTITLE1=Manic Depression - 3rd Stone From The Sun (Jimi Hendrix)
TTITLE2=Can't Let Go
TTITLE3=Little Jimi
TTITLE4=Luana
TTITLE5=The Wind Cries Mary (Jimi Hendrix)
TTITLE6=She's Gone
TTITLE7=Danny Boy (Frederic Weatherly)
TTITLE8=Si bheag Si mhor (Turlough O'Carolan)
TTITLE9=Little Wing (Jimi Hendrix)
EXTD=
EXTT0=
EXTT1=
EXTT2=
EXTT3=
EXTT4=
EXTT5=
EXTT6=
EXTT7=
EXTT8=
EXTT9=
PLAYORDER=
